<?xml version="1.0" encoding="UTF-8"?>
<svg id="Camada_2" data-name="Camada 2" xmlns="http://www.w3.org/2000/svg" viewBox="0 0 277.88 337.84">
  <defs>
    <style>
      .cls-1 {
        fill: #030349;
        stroke-width: 0px;
      }
    </style>
  </defs>
  <g id="Camada_1-2" data-name="Camada 1">
    <g>
      <path class="cls-1" d="M204.38,280.49c-14.75,24.96-35.54,41.97-59.56,55.53-4.15,2.35-7.35,2.47-11.64.07-24.08-13.5-44.84-30.54-59.83-55.67-11.45,8.37-22.17,2.75-33.04-1.62-6.92-2.78-13.98-5.23-20.86-8.1-17.99-7.49-23.68-20.44-16.31-38.6,4.21-10.38,9.48-20.34,14.37-30.44,6.95-14.37,13.97-28.7,21.01-43.03,10.51-21.38,27.36-31.93,51.41-31.62,32.61.43,65.24.43,97.85,0,23.69-.32,40.66,9.8,51.1,30.88,11.73,23.69,23.47,47.38,34.56,71.38,9.5,20.55,3.77,33.82-17.12,42.17-8.31,3.32-16.71,6.44-24.96,9.89-8.9,3.73-17.67,5.15-26.97-.85ZM139.59,137.23c0-.21,0-.42,0-.63-15.69,0-31.39.49-47.05-.12-21.96-.86-37.08,8.47-46.44,28.3-10.54,22.33-21.61,44.4-32.24,66.69-1.8,3.77-2.96,7.96-3.72,12.09-1.27,6.92,1.36,12.71,7.75,15.49,12.53,5.44,25.22,10.6,38.1,15.11,7.46,2.61,13.82-1.22,16.79-8.53,3.59-8.83.7-17.08-8.13-21.32-8.06-3.87-16.61-6.74-24.6-10.74-2.06-1.03-2.82-4.69-4.18-7.14,2.58-.53,5.54-2.15,7.66-1.4,8.19,2.9,16.2,6.36,24.11,9.99,13.38,6.14,18.65,18.73,14.68,32.91-.81,2.9-.64,6.98.83,9.49,12.57,21.55,31.35,36.52,52.71,48.52,1.57.88,4.5.85,6.08-.04,21.41-11.94,40.13-26.97,52.69-48.53,1.46-2.51,1.58-6.59.78-9.52-3.94-14.29,1.32-26.73,14.75-32.87,7.69-3.51,15.45-6.93,23.42-9.7,2.34-.81,7.02-.19,8,1.41,2.49,4.04-.97,5.97-4.53,7.43-8.29,3.38-16.67,6.6-24.68,10.58-8.52,4.24-11.03,12.98-7.02,21.69,3.62,7.86,10.17,10.36,19.38,6.97,10.03-3.7,20.02-7.53,29.89-11.64,13.25-5.52,16.49-12.83,10.94-26.17-4.6-11.04-9.98-21.76-15.28-32.49-7.74-15.64-15.34-31.36-23.72-46.65-6.4-11.67-16.73-18.7-30.24-19.04-18.9-.48-37.82-.12-56.73-.12Z"/>
      <path class="cls-1" d="M196.39,57.08c.23,31.32-25.14,56.96-56.85,57.46-31.69.5-57.88-25.2-58.07-56.98C81.27,26.19,106.67.46,138.25,0c31.53-.45,57.91,25.45,58.14,57.07ZM139.24,9.89c-26.55-.16-48.06,20.76-48.21,46.88-.15,26.39,20.82,47.75,47.15,48.01,26.66.27,48.26-20.45,48.53-46.54.28-26.87-20.66-48.2-47.47-48.36Z"/>
      <path class="cls-1" d="M128.4,245.15c11.62-11.95,21.73-22.22,31.68-32.64,4.02-4.21,8.34-7.27,14.42-5.37,4.95,1.54,14.79,12.82,14.25,17.08-.4,3.2-1.86,6.87-4.05,9.15-15.53,16.15-31.3,32.05-47.13,47.9-6.49,6.5-10.52,6.43-17.11-.05-9.23-9.07-18.37-18.24-27.4-27.5-6.02-6.18-5.93-11.15-.05-17.51,1.86-2.01,3.75-3.99,5.74-5.87,6.05-5.7,11.02-5.92,16.83-.08,4.36,4.37,8.11,9.36,12.83,14.9ZM99.24,244.52c10.45,10.5,20.42,20.51,29.86,30,16.35-16,33.08-32.39,50.24-49.19-3.4-2.93-6.52-5.62-9.89-8.53-11.46,11.52-22.71,22.48-33.54,33.85-4.85,5.1-8.79,5.74-13.5.13-4.41-5.26-9.15-10.24-14.02-15.65-4.06,4.17-6.66,6.83-9.15,9.39Z"/>
      <path class="cls-1" d="M57.31,199.51c.19-21.87-2.47-16.54,16.76-23.57,19.6-7.16,39.34-13.94,59.16-20.47,3.46-1.14,7.94-1.23,11.37-.08,22.86,7.62,45.51,15.86,68.35,23.53,5.65,1.9,8.05,4.81,7.72,10.82-.4,7.22.35,14.53-.34,21.7-.25,2.63-3.21,4.99-4.93,7.47-1.56-2.39-3.18-4.73-4.62-7.18-.33-.56-.03-1.47-.06-2.22-.27-6.92,1.78-15.43-1.5-20.29-3.07-4.54-11.78-5.33-18.07-7.56-15.69-5.57-31.38-11.14-47.17-16.39-2.82-.93-6.45-1.15-9.21-.22-20.95,7.07-41.72,14.66-62.67,21.69-4.22,1.42-5.3,3.47-5.11,7.53.28,6.23.43,12.52-.15,18.71-.19,2.06-2.78,3.89-4.28,5.82-1.75-1.94-4.61-3.67-5.01-5.86-.8-4.35-.24-8.95-.24-13.44Z"/>
    </g>
  </g>
</svg>