<?xml version="1.0" encoding="UTF-8"?>
<svg id="Camada_2" data-name="Camada 2" xmlns="http://www.w3.org/2000/svg" viewBox="0 0 399.11 399.2">
  <defs>
    <style>
      .cls-1 {
        fill: #030349;
        stroke-width: 0px;
      }
    </style>
  </defs>
  <g id="Camada_1-2" data-name="Camada 1">
    <g>
      <path class="cls-1" d="M213.6,0c17.61,4.15,35.98,6.31,52.69,12.78,71.97,27.84,116.31,80.03,129.55,156.27,11.29,64.98-6.86,122.59-51.58,170.84-26.59,28.69-60.62,45.58-98.71,54.42-88.37,20.5-183.88-24.95-223.87-106.48-10.97-22.37-18.04-45.74-20.44-70.54-.17-1.77-.81-3.5-1.24-5.25,0-10.91,0-21.83,0-32.74,1.58-8.32,2.85-16.71,4.8-24.94C21.67,83.31,63.71,34.46,133.3,10.86,148.62,5.67,164.98,3.54,180.86,0c10.91,0,21.83,0,32.74,0ZM199.73,388.08c103.89-.32,188.49-84.99,188.41-188.58-.08-104.06-85.38-189.12-189.12-188.58C95.04,11.46,10.58,96.31,11,199.8c.42,103.87,85.35,188.59,188.73,188.27Z"/>
      <path class="cls-1" d="M254.91,318.48c-19.43-.36-37.1-7.36-53.73-16.43-53.75-29.32-93.97-71.26-116.32-128.93-10.93-28.2-5.26-53.46,15.76-75.21,3.61-3.73,7.21-7.5,11.08-10.95,9.25-8.24,21.44-8.7,30.33-.26,13.38,12.68,26.4,25.75,39.09,39.11,8.25,8.69,7.91,20.54-.31,29.54-6.12,6.7-12.58,13.13-19.22,19.33-4.63,4.33-5.24,7.91-1.07,13.24,15.14,19.35,32.39,36.42,52.11,51.08,4.97,3.7,8.5,3.67,12.69-.82,5.66-6.08,11.59-11.91,17.6-17.65,10.62-10.13,22.76-10.26,33.17-.15,12.11,11.76,24.08,23.66,35.86,35.74,10.19,10.46,9.95,22.4.04,33.12-15.46,16.73-32.95,29.39-57.1,29.24ZM92.33,147.24c1.61,6.76,2.45,13.82,4.94,20.24,22.53,57.92,63.24,99.13,118.33,126.51,12.94,6.43,26.74,11.66,41.73,11.12,20.16-.71,34.08-12.55,46.44-26.79,3.71-4.27,2.35-8.73-1.4-12.5-11.91-11.97-23.82-23.94-35.79-35.83-4.73-4.7-9.58-4.57-14.28.18-6.03,6.09-11.99,12.26-18.09,18.27-9.39,9.25-17.9,9.81-28.41,2.14-21.55-15.72-40.43-34.14-56.53-55.43-7.95-10.51-7.59-18.86,1.61-28.4,6.31-6.54,12.86-12.85,19.24-19.33,4.38-4.45,4.61-9.27.22-13.73-12.02-12.22-23.97-24.53-36.53-36.19-2.32-2.15-8.91-3.3-10.88-1.68-16.16,13.24-30.22,28.09-30.6,51.41Z"/>
    </g>
  </g>
</svg>