<?xml version="1.0" encoding="UTF-8"?>
<svg id="Camada_2" data-name="Camada 2" xmlns="http://www.w3.org/2000/svg" viewBox="0 0 336.13 335.98">
  <defs>
    <style>
      .cls-1 {
        fill: #030349;
        stroke-width: 0px;
      }
    </style>
  </defs>
  <g id="Camada_1-2" data-name="Camada 1">
    <g>
      <path class="cls-1" d="M302.3,233.83c5.19-5.72,9.35-10.35,13.57-14.93,3.31-3.6,7.27-5.03,11.05-1.24,3.78,3.79,2.25,7.69-1.23,11.09-2.87,2.79-5.29,6.19-8.54,8.39-11.32,7.66-14.17,17.73-9.11,30.06,8.12,19.81,2.53,34.44-14.04,47.84-15.12,12.22-14.48,13.42-24.66-3.53-22.37-37.25-44.75-74.49-67.13-111.73-1.27-2.12-2.67-4.16-4.49-6.99-10.41,8.55-20.09,17.5-30.81,24.95-7.98,5.55-9.55,11.22-7.35,20.49,5.48,23.06,9.59,46.44,14.58,69.62,1.31,6.08.17,10.61-4.62,14.6-3.44,2.87-6.36,6.35-9.61,9.47-6.11,5.86-9.82,5.5-14.24-1.7-12.02-19.58-23.9-39.25-35.83-58.88-1.4-2.31-2.84-4.59-4.29-6.95-8.58,4.68-16.43,9.5-24.74,13.32-7.44,3.42-15.84,7.28-22.97-.03-6.96-7.13-2.58-15.15.71-22.31,3.74-8.14,8.38-15.87,13.08-24.61-1.83-1.21-3.97-2.74-6.2-4.1-19.41-11.81-38.86-23.57-58.26-35.4-8.9-5.43-9.4-8.83-1.89-16.08,18.2-17.6,10.01-15.39,34.66-10.56,21.8,4.27,43.53,8.86,65.35,13.04,2.24.43,5.82-.14,7.11-1.65,10.37-12.15,20.33-24.64,30.94-37.66-2.67-1.7-5.08-3.31-7.57-4.8-38.31-23.03-76.63-46.04-114.94-69.06-11.87-7.13-12.12-9.39-2.11-19.41,5.48-5.48,11.28-10.68,16.34-16.52,4.19-4.83,8.79-5.75,14.7-4.45,10.23,2.25,20.65,3.74,30.81,6.26,4.67,1.16,7.39-.2,10.37-3.41,5.27-5.67,10.95-10.96,16.38-16.49,3.4-3.47,7.24-5.11,11.08-1.37,3.83,3.73,2.47,7.73-1.11,11.06-4.56,4.24-9.2,8.39-15.53,14.16,13.29,2.62,24.1,4.9,34.98,6.74,1.42.24,3.45-1.5,4.79-2.76,4.54-4.29,8.5-9.32,13.49-12.95,2.33-1.69,7.37-2.2,9.68-.79,4.08,2.49,3.35,7.1-.01,10.25-3.06,2.87-6.77,5.05-10.19,7.54.63.91,1.25,1.81,1.88,2.72,17.55,3.46,35.19,6.52,52.6,10.6,6.86,1.61,10.65-.79,15.66-4.89,17.33-14.2,34.96-28.12,53.28-40.99,6.69-4.7,15.42-7.21,23.59-8.98,21.57-4.66,39.27,12.47,33.6,33.72-3.52,13.22-9.68,26.36-17.38,37.69-10.19,14.99-23.18,28.05-34.59,42.25-1.96,2.44-3.26,6.62-2.74,9.64,3.21,18.62,7.02,37.14,10.63,55.69.9.62,1.81,1.25,2.71,1.87,2.49-3.41,4.68-7.1,7.54-10.17,3.15-3.39,7.74-4.11,10.25-.06,1.43,2.3-.21,6.51-.51,9.85-.02.19-.3.4-.51.53-21.8,13.23-13.44,31.79-8.18,52.05ZM252.06,43.72c-5.48,5.07-10.15,9.16-14.58,13.51-39.62,38.93-76.39,80.45-110.92,123.9-16.45,20.7-31.51,42.51-46.77,64.12-4.44,6.28-7.41,13.61-11.73,21.73,34.74-9.63,208.71-153.62,222.71-183.44-20.31-5.42-33.05-18.66-38.71-39.82ZM30.26,53.86c40.93,24.59,81.49,48.97,122.31,73.5,17.56-19.33,34.94-38.48,52.67-57.99-2.43-.68-4.28-1.35-6.19-1.72-44.53-8.69-89.28-16.45-133.51-26.49-15.61-3.54-26.17-1.05-35.28,12.7ZM282.96,307.07c2.52-3.08,3.93-5.65,6.07-7.26,7.85-5.91,9.21-12.61,7.07-22.51-7.98-36.77-14.66-73.83-21.87-110.77-2.3-11.76-4.75-23.48-7.27-35.94-20,18.17-38.98,35.43-58.24,52.93,24.48,40.73,48.85,81.28,74.25,123.55ZM321.13,31.44c.2-14.57-6.74-20.13-19.96-15.73-11.42,3.81-22.06,10.09-32.79,15.77-1.68.89-2.99,4.47-2.76,6.63,1.76,16.75,15.43,30.4,32.26,32.41,1.9.23,4.89-.23,5.82-1.5,8.69-11.96,16.28-24.49,17.42-37.58ZM155.05,318.81c2.11-4.4,5.04-7.51,4.58-9.99-4.48-24.11-9.53-48.12-14.62-73.16-9.78,7.15-18.72,13.69-28.06,20.51,12.45,20.48,24.68,40.58,38.1,62.65ZM19.11,182.18c20.46,12.42,40.43,24.53,60.86,36.94,6.83-9.4,13.4-18.45,20.41-28.1-24.25-4.9-47.22-9.35-70.07-14.31-5.36-1.17-8.5.14-11.21,5.48Z"/>
      <path class="cls-1" d="M150.44,197c-2.58-2.13-5.54-3.39-5.93-5.2-.55-2.54-.05-6.16,1.5-8.16,5.17-6.71,10.86-13.04,16.63-19.27,16.96-18.31,34.06-36.5,51.1-54.75,3.6-3.85,7.63-7.64,12.59-2.67,4.54,4.55,1.15,8.44-2.29,12.16-21.87,23.64-43.62,47.39-65.49,71.02-2.25,2.43-5.08,4.33-8.1,6.87Z"/>
    </g>
  </g>
</svg>