<?xml version="1.0" encoding="UTF-8"?>
<svg id="Camada_2" data-name="Camada 2" xmlns="http://www.w3.org/2000/svg" viewBox="0 0 426.78 398.4">
  <defs>
    <style>
      .cls-1 {
        fill: #030349;
        stroke-width: 0px;
      }
    </style>
  </defs>
  <g id="Camada_1-2" data-name="Camada 1">
    <g>
      <path class="cls-1" d="M384.11,128.33H14.25v4.53c0,61.65,0,123.29,0,184.94,0,15.1,8.59,23.72,23.68,23.72,53.49.01,106.98,0,160.47,0,5.93,0,11.85,0,17.78,0,8.04,0,11.5,2.19,11.41,7.23-.09,4.9-3.44,7-11.2,7-59.27,0-118.54,0-177.8,0-2.37,0-4.76.07-7.1-.24C13.19,353.07.12,338.4.06,319.91c-.11-33.79-.03-67.57-.03-101.36,0-45.94-.01-91.88,0-137.82,0-23.07,14.99-37.97,38.17-37.99,8.42,0,16.85,0,25.84,0,0-4.52-.02-8.76,0-13C64.13,12.86,76.26.14,92.34.08c16.3-.06,28.51,12.67,28.6,29.83.02,4.12,0,8.24,0,12.6h49.81c0-4.85-.11-9.83.02-14.79.37-13.9,10.58-25.24,24.53-27.4,13.27-2.05,26.63,6.25,30.79,19.38.93,2.92,1.3,6.08,1.47,9.15.24,4.42.06,8.86.06,13.6h49.8c0-4.42-.03-8.81,0-13.21.14-16.48,12.46-29.12,28.38-29.15,15.95-.03,28.33,12.56,28.51,29.02.05,4.41,0,8.82,0,13.65,8.82,0,17.23,0,25.63,0,23.5.01,38.37,14.82,38.38,38.23.01,38.38,0,76.76,0,115.14,0,1.33.13,2.7-.11,3.99-.71,3.82-3.07,6.15-6.99,6.15-3.92,0-6.29-2.31-7-6.14-.24-1.29-.11-2.66-.11-3.99,0-20.89,0-41.79,0-62.68v-5.12ZM14.32,113.58h369.79c0-11.39.02-22.48,0-33.58-.04-14.2-8.83-23-23.02-23.02-21.63-.03-43.25-.01-64.88,0-1.43,0-2.85.13-4.49.21,0,5.36-.26,10.39.06,15.39.43,6.69,6.1,12.14,12.72,12.79,6.53.64,12.68-3.36,14.8-9.68.46-1.37.76-2.8,1.15-4.24h13.69c0,1.28.12,2.32-.02,3.33-2.13,15.11-15.17,25.79-30.24,24.81-14.74-.96-26.19-13.22-26.43-28.36-.07-4.68-.01-9.35-.01-13.9h-92.47c0,4.35,0,8.35,0,12.35,0,.74-.02,1.48.03,2.22.43,6.94,5.79,12.66,12.58,13.45,6.66.77,12.97-3.33,15.1-9.86.44-1.36.76-2.75,1.08-3.94h13.72c-.18,15.34-12.37,27.69-27.39,28.08-15.45.4-28.57-11.55-29.27-26.83-.23-5.13-.04-10.28-.04-15.55h-92.45c0,5.28-.26,10.31.06,15.3.43,6.69,6.07,12.15,12.7,12.81,6.52.65,12.69-3.34,14.82-9.65.46-1.38.76-2.81,1.15-4.27h13.78c0,.97.06,1.71,0,2.43-1.48,15.02-14.3,26.24-29.42,25.76-14.92-.47-27-12.78-27.33-27.92-.11-4.82-.02-9.65-.02-14.66-10.52,0-20.44-.35-30.33.1-10.21.46-18.93,9.11-19.3,19.31-.45,12.26-.11,24.55-.11,37.13ZM106.65,42.55c0-5.37.27-10.4-.06-15.38-.48-7.06-6.56-12.61-13.56-12.86-7.24-.26-13.86,5-14.54,12.22-.49,5.23-.1,10.55-.1,16.02h28.26ZM184.98,42.46h28.39c0-5.16.21-10.03-.05-14.88-.4-7.45-6.72-13.24-14.09-13.26-7.6-.03-13.89,5.87-14.21,13.58-.2,4.72-.04,9.45-.04,14.56ZM320.07,42.55c0-5.25.17-9.99-.04-14.71-.31-7.14-5.99-12.92-12.95-13.5-7.05-.59-13.93,4.03-14.94,11.11-.79,5.59-.16,11.37-.16,17.1h28.09Z"/>
      <path class="cls-1" d="M227.63,298.62c.01-54.58,44.72-99.36,99.22-99.37,55.39-.01,99.99,44.63,99.93,100.03-.05,54.28-44.92,99.19-99.02,99.12-55.68-.07-100.14-44.38-100.13-99.78ZM412.55,298.81c-.17-47.03-38.37-85.41-84.93-85.31-47.97.1-85.91,38.25-85.76,86.25.15,46.51,38.79,84.55,85.8,84.44,46.65-.1,85.05-38.73,84.88-85.39Z"/>
      <path class="cls-1" d="M57.1,191.8v-27.86h28.06v27.86h-28.06Z"/>
      <path class="cls-1" d="M149.08,191.94h-27.9v-27.9h27.9v27.9Z"/>
      <path class="cls-1" d="M213.19,163.98v27.93h-27.9v-27.93h27.9Z"/>
      <path class="cls-1" d="M277.05,192.04h-27.74v-28.06h27.74v28.06Z"/>
      <path class="cls-1" d="M341.1,191.96h-27.86v-28.06h27.86v28.06Z"/>
      <path class="cls-1" d="M57.25,220.78h27.88v27.9h-27.88v-27.9Z"/>
      <path class="cls-1" d="M149.07,248.85h-27.9v-27.9h27.9v27.9Z"/>
      <path class="cls-1" d="M213.09,248.85h-27.9v-27.9h27.9v27.9Z"/>
      <path class="cls-1" d="M85.06,305.76h-27.89v-27.9h27.89v27.9Z"/>
      <path class="cls-1" d="M121.25,277.7h27.9v27.9h-27.9v-27.9Z"/>
      <path class="cls-1" d="M327.51,377.06c-43.53.03-78.49-34.91-78.52-78.48-.04-43.02,35.21-78,78.58-77.98,42.59.01,77.8,35.2,77.87,77.83.08,43.33-34.89,78.61-77.93,78.63ZM327.38,234.83c-35.71.05-64.29,28.77-64.18,64.5.11,35.02,28.97,63.55,64.27,63.53,35.02-.02,63.87-29.01,63.74-64.06-.12-35.29-28.79-64.02-63.83-63.96Z"/>
      <path class="cls-1" d="M320.1,256.34h14.23c0,6.52-.02,12.97,0,19.42.02,6.65-1.72,14.05.63,19.75,2.35,5.7,8.75,9.75,13.47,14.43,3.98,3.95,8.09,7.75,12.36,11.82-3.86,3.48-7.22,6.5-10.92,9.84-4.66-4.67-9.88-9.87-15.06-15.11-4.87-4.93-11.58-9.14-14.02-15.09-2.45-5.96-.66-13.68-.69-20.62-.03-7.98,0-15.96,0-24.44Z"/>
    </g>
  </g>
</svg>