<?xml version="1.0" encoding="UTF-8"?>
<svg id="Camada_2" data-name="Camada 2" xmlns="http://www.w3.org/2000/svg" viewBox="0 0 408.84 408.74">
  <defs>
    <style>
      .cls-1 {
        fill: #030349;
        stroke-width: 0px;
      }
    </style>
  </defs>
  <g id="Camada_1-2" data-name="Camada 1">
    <g>
      <path class="cls-1" d="M408.84,90.09c-1.13,7.32-1.99,14.69-3.44,21.95-3.47,17.4-8.96,34.23-16.63,50.19-3.35,6.97-3.97,13.54-3.03,21.05,4.72,37.68-2.36,73.29-19.91,106.88-2.34,4.47-6.74,6.14-10.63,4.28-4.24-2.02-5.53-6.59-3.53-11.58,4.64-11.57,10.36-22.86,13.55-34.82,13.48-50.69,4.3-97.63-24.17-139.76-9.66,0-18.25.08-26.84-.03-7-.09-13.45,1.47-19.09,5.74-7.21,5.47-10.94,12.81-11.61,21.8-1.09,14.63-8.15,21.68-22.91,22.98-8.07.71-14.11,6.66-14.77,14.67-.19,2.25-.23,4.53-.11,6.78.5,9.69,7.01,16.01,16.77,16.05,19.56.09,39.12.02,58.68.04,1.46,0,2.95-.03,4.37.24,3.94.75,6.67,4.1,6.61,7.87-.06,3.66-2.66,6.77-6.46,7.58-1.16.25-2.38.27-3.57.27-19.69.02-39.39.08-59.08-.01-16.16-.08-28.73-9.13-32.21-24.51-4.01-17.75.67-33.6,17.19-41.68,3.83-1.87,8.35-2.5,12.63-3.2,4.84-.79,6.57-2.28,6.86-7.1,1.53-25.41,20.06-43.13,45.49-43.46,4.62-.06,9.25,0,14.56,0-.78-1.12-1.12-1.76-1.59-2.27-23.31-24.64-51.53-40.76-84.55-48.4-1.52-.35-3.56-.15-4.88.62-13.66,7.97-27.46,15.72-40.68,24.37-5.57,3.65-9.91,9.21-14.56,14.14-.67.71-.31,2.96.26,4.17,10.1,21.24,20.3,42.44,30.48,63.64,1.44,2.99,2.93,5.96,4.31,8.99,2.14,4.68,1.68,7.49-1.95,11.21-4.65,4.76-9.34,9.48-14.11,14.12-5.04,4.89-9.86,4.53-14.18-1.1-14.5-18.89-28.95-37.82-43.42-56.73-.79-1.03-1.64-2.01-2.71-3.32-12.57,12.63-25,25.03-37.26,37.59-.95.98-1.08,3.15-.96,4.71.62,8.36,1.39,16.7,2.22,25.04.39,3.87-.8,6.94-3.6,9.65-5.74,5.55-11.28,11.31-16.99,16.89-5.9,5.77-12.49,4.03-14.78-3.83-1.21-4.16-2.37-8.33-3.83-13.49-4.87,7.89-9.26,14.95-13.57,22.04-1.31,2.16-2.43,4.43-3.63,6.65-7.08,13.01-7.01,12.99-2.4,27.1,13.45,41.2,38.69,73.04,76.16,94.78,30.68,17.8,63.96,24.6,99.28,21.57,0-8.03.62-15.88-.18-23.59-.72-6.94-6.56-12.12-13.63-12.49-10.88-.57-21.8-.4-32.71-.43-7.07-.02-14.12.09-20.66-3.25-10.94-5.59-16.96-14.54-18.3-26.7-.87-7.96-2.55-9.54-10.64-9.45-9.5.1-18.78-.31-27.37-5.35-12.87-7.53-20.32-23.45-17.55-38.58,2.75-15.04,14.98-27.34,29.65-29.65,2.98-.47,4.69-1.18,5.5-4.76,2.4-10.63,11.96-19.21,23.08-19.51,18.2-.5,36.47-.57,54.62.52,15.43.92,29.48,16.28,30.32,31.8.65,11.94.47,23.93.62,35.9.07,5.45.53,6.07,5.93,5.95,10.11-.21,19.62,1.3,27.45,8.44,6.16,5.61,10.05,12.5,10.61,20.79.51,7.55.36,15.16.23,22.74-.08,4.63-3.18,7.65-7.4,7.85-4.31.21-7.72-2.34-8.14-7.01-.49-5.55-.62-11.18-.27-16.74.8-12.7-7.12-20.77-20.33-20.16-3.66.17-7.51-.11-11.01-1.12-7.41-2.12-12.61-8.83-12.83-16.54-.31-10.77-.18-21.56-.21-32.33-.04-16.25-8.32-24.51-24.61-24.51-13.44,0-26.88-.02-40.32,0-8.25.01-12.29,3.67-13.07,11.77-.72,7.4-5.5,11.61-13.77,12.13-9.41.58-16.94,6.08-19.65,14.34-4.44,13.55,4.97,27.14,19.45,27.94,3.98.22,7.98.02,11.97.09,13.03.26,22.34,8.99,23.45,21.95,1.02,11.91,6.92,17.35,18.85,17.44,12.37.09,24.74,0,37.1.38,15.9.49,30.28,14.02,30.3,33.34,0,5.31,0,10.61,0,16.23,14.93-2.84,28.83-7.57,41.96-14.36,6.6-3.41,12.78-7.62,19.32-11.16,2.21-1.2,4.98-2.15,7.41-1.99,3.27.22,5.39,2.79,6.13,6.03.79,3.51-.74,6.33-3.55,8.28-3.93,2.72-7.95,5.35-12.09,7.73-33.76,19.39-70.15,27.73-108.82,23.62-10.98-1.17-20.28.33-30.13,4.81-18.69,8.51-38.38,14.1-58.82,16.77-2.75.36-5.5.75-8.25,1.12h-18.36c-4.55-.82-9.14-1.47-13.65-2.5-25.74-5.89-44.04-20.6-52.97-45.81-5.85-16.51-6.27-33.64-3.98-50.84,3.17-23.79,10.61-46.32,20.86-67.94,1.82-3.84,2.09-7.48,1.48-11.54-2.3-15.34-2.84-30.75-.75-46.15,1.25-9.17,3.01-18.27,4.59-27.73-6.76-1.85-13.69-3.64-20.55-5.65-7.21-2.11-9.02-8.78-3.81-14.19,5.91-6.13,12.02-12.07,18.04-18.1,2.52-2.52,5.53-3.41,9.08-3.06,8.74.86,17.48,1.64,26.23,2.32,1.16.09,2.75-.25,3.53-1.02,12.49-12.32,24.88-24.75,37.48-37.33-1.24-1-2.25-1.85-3.29-2.65-18.7-14.31-37.41-28.61-56.1-42.94-6.59-5.05-6.83-9.56-.91-15.51,3.94-3.96,7.91-7.9,11.86-11.85,5.62-5.61,7.34-5.92,14.37-2.54,23.6,11.32,47.23,22.59,70.78,34.03,2.49,1.21,3.87,1.02,5.77-.97,5.6-5.88,11.37-11.59,17.18-17.26C172.1,4.92,189.92-1.78,210.85.42c5.18.54,7.89,3.14,7.94,8.24.06,6.62-.42,13.24-.82,19.85-.11,1.8-.73,3.56-1.28,6.09,2.04-1.07,3.39-1.85,4.79-2.51,11.87-5.64,23.5-11.88,35.67-16.76C283.52,4.74,310.65-1.91,339.54.49c32.87,2.73,57.67,22.72,66,54.49,1.51,5.74,2.22,11.69,3.29,17.54v17.57ZM80.6,195.3c5.39-3.63,8.11-7.54,6.76-14.18-1.41-6.99-1.32-14.28-2.02-21.43-.38-3.89.96-6.85,3.73-9.59,14.76-14.6,29.39-29.32,44.08-43.98,6.26-6.25,10.61-5.93,16.05,1.17,14.15,18.49,28.28,36.98,42.43,55.47.85,1.11,1.75,2.18,2.64,3.29q5.93-5.29,2.73-11.93c-10.93-22.76-21.86-45.51-32.77-68.28-2.91-6.07-2.51-8.3,2.28-13.12,8.15-8.22,16.53-16.23,24.41-24.7,8.27-8.88,12.15-19.66,12.36-31.92-.9-.09-1.41-.19-1.92-.18-.93.02-1.86.06-2.79.18-11.92,1.46-22.07,6.46-30.51,15.02-6.91,7.01-13.91,13.94-20.88,20.9-5.67,5.67-7.59,6-14.75,2.56-23.35-11.22-46.73-22.39-70.01-33.75-2.92-1.43-4.86-1.35-6.72,1.28-.67.95-1.57,1.75-2.56,2.84,1.31,1.03,2.42,1.93,3.56,2.81,18.49,14.15,36.98,28.28,55.46,42.44,6.85,5.25,7.14,9.69,1.06,15.78-14.76,14.78-29.58,29.51-44.27,44.37-2.76,2.8-5.76,4.03-9.62,3.64-7.01-.71-14.14-.76-21.02-2.1-6.74-1.32-10.84,1.31-14.25,6.81,12.37,3.4,24.59,6.96,36.93,10.07,5.27,1.33,8.12,4.07,9.46,9.39,3.1,12.35,6.68,24.58,10.14,37.15ZM262.19,30.51c56.94,20.78,95.3,59.32,116.01,116.18,2.08-5.74,4.1-10.79,5.76-15.97,6.47-20.16,10.47-40.61,8.15-61.98-3.17-29.17-23.24-49.13-52.43-52.16-27-2.8-52.14,4.14-77.48,13.92ZM146.67,378.03c-56.66-20.68-95.28-59-116.06-116.23-2.24,6.38-4.39,11.95-6.16,17.63-6.65,21.38-10.92,43.06-6.77,65.54,4.09,22.17,16.51,37.3,38.27,44.16,14.39,4.53,29.04,4.26,43.81,2.18,16.14-2.28,31.5-7.15,46.91-13.28ZM43.42,160.81c-4.39,16.13-6.23,32.44-5.74,49.22.65-.23.99-.24,1.09-.4,6.53-10.01,13.06-20.03,19.53-30.08.46-.71.76-1.73.67-2.57-1.11-11.35-3.41-13.8-15.56-16.18Z"/>
      <path class="cls-1" d="M335.21,328.14c-4.21,0-7.81-3.63-7.79-7.86.02-4.25,3.94-8.15,8.14-8.09,4.17.06,7.82,3.76,7.8,7.92-.02,4.35-3.75,8.02-8.14,8.02Z"/>
    </g>
  </g>
</svg>