<?xml version="1.0" encoding="UTF-8"?>
<svg id="Camada_2" data-name="Camada 2" xmlns="http://www.w3.org/2000/svg" viewBox="0 0 359.59 421.93">
  <defs>
    <style>
      .cls-1 {
        fill: #030349;
        stroke-width: 0px;
      }
    </style>
  </defs>
  <g id="Camada_1-2" data-name="Camada 1">
    <g>
      <path class="cls-1" d="M182.23,0c12.76,4.12,25.5,8.33,38.29,12.34,43.31,13.6,86.64,27.12,129.96,40.69,7.81,2.45,9.03,4.19,9.03,12.42,0,46.17.2,92.34-.05,138.5-.36,67.48-25.58,124-76.29,168.63-29.04,25.56-63.02,41.7-101,49.11-3.8.74-8.17-.45-12.1-1.44-66.5-16.78-115.94-55.28-147.11-116.55C7.19,272.7-.02,239.54,0,204.77c.03-46.72,0-93.43,0-140.15,0-7.15,1.44-9.09,8.29-11.23C63.39,36.12,118.48,18.86,173.57,1.57c1.28-.4,2.48-1.04,3.72-1.57,1.65,0,3.3,0,4.95,0ZM16.5,68.05c0,1.24,0,2.05,0,2.87,0,45.76-.33,91.52.23,137.28.17,13.64,1.37,27.61,4.6,40.81,19.75,80.74,70.14,132.22,150.17,154.59,3.82,1.07,8.25,1.81,12.02.98,92.25-20.29,158.43-101.48,159.39-195.88.47-45.76.07-91.52.18-137.28,0-2.74-.97-3.77-3.41-4.53-52.25-16.28-104.46-32.65-156.72-48.89-1.93-.6-4.37-.58-6.31.02-28.83,8.9-57.62,17.94-86.41,26.95-24.46,7.66-48.93,15.31-73.75,23.08Z"/>
      <path class="cls-1" d="M313.31,156.32c0,17.59.21,35.18-.05,52.76-.39,27.07-6.92,52.68-19.33,76.76-2.79,5.42-7.2,7.29-11.7,5.08-4.64-2.28-5.75-7.02-2.85-12.73,11.91-23.45,17.61-48.32,17.49-74.63-.15-32.56-.08-65.13.03-97.7,0-2.95-.8-4.27-3.71-5.17-36.81-11.42-73.57-23-110.37-34.42-1.82-.56-4.11-.6-5.91-.04-36.81,11.43-73.56,23.01-110.37,34.44-2.97.92-3.98,2.16-3.97,5.37.15,34.76-.19,69.53.19,104.29.75,67.69,48.79,129.32,114.16,146.89,1.86.5,4.1.46,5.96-.06,16.95-4.69,32.59-12.21,46.97-22.34.67-.47,1.34-.96,2.02-1.42,4.74-3.17,9.57-2.67,12.4,1.27,2.85,3.97,1.97,9.09-2.83,12.05-9.91,6.11-19.79,12.41-30.24,17.47-8.58,4.15-17.91,6.84-27.05,9.71-2.69.85-6.05.75-8.82.01-68.31-18.11-118.69-75.59-127.62-145.6-.97-7.61-1.46-15.33-1.49-23-.15-35.59-.07-71.18-.07-106.76,0-7.16,1.5-9.14,8.27-11.26,39.91-12.5,79.8-25.1,119.77-37.41,3.31-1.02,7.45-1.15,10.73-.14,40.11,12.35,80.13,24.98,120.17,37.55,6.78,2.13,8.22,4.16,8.22,11.32,0,19.24,0,38.47,0,57.71h-.03Z"/>
      <path class="cls-1" d="M164.69,197.33c16.4-16.39,32.32-32.3,48.25-48.21,1.07-1.07,2.1-2.18,3.24-3.17,3.74-3.26,7.94-3.52,11.47-.08,9.55,9.29,18.97,18.71,28.25,28.26,3.27,3.36,3.05,7.57.05,11.2-.78.95-1.7,1.79-2.57,2.67-26.8,26.8-53.6,53.61-80.41,80.41-6.44,6.44-9.87,6.45-16.26.06-17.09-17.09-34.19-34.18-51.27-51.28-5.63-5.63-5.62-9.38.03-15.05,8.24-8.27,16.49-16.53,24.76-24.77,5.29-5.28,9.38-5.26,14.77.12,6.5,6.49,12.95,13.04,19.69,19.84ZM138.06,193.74c-5.65,5.62-10.96,10.92-16.13,16.06,14.17,14.19,28.5,28.54,42.37,42.43,24.3-24.28,48.7-48.68,72.85-72.81-4.84-4.87-10.03-10.11-16.32-16.43-.66,1.14-1.2,2.7-2.24,3.75-15.38,15.48-30.82,30.91-46.27,46.32-5.57,5.56-9.48,5.54-15.08-.05-6.48-6.48-12.93-12.99-19.19-19.28Z"/>
      <path class="cls-1" d="M264.93,322.42c-4.42.03-8.2-3.62-8.32-8.01-.12-4.48,3.89-8.5,8.4-8.41,4.48.09,8.02,3.75,8,8.28-.02,4.56-3.54,8.11-8.07,8.14Z"/>
    </g>
  </g>
</svg>