<?xml version="1.0" encoding="UTF-8"?>
<svg id="Camada_2" data-name="Camada 2" xmlns="http://www.w3.org/2000/svg" viewBox="0 0 367.32 408.66">
  <defs>
    <style>
      .cls-1 {
        fill: #030349;
        stroke-width: 0px;
      }
    </style>
  </defs>
  <g id="Camada_1-2" data-name="Camada 1">
    <g>
      <path class="cls-1" d="M5.61,408.66c-4.61-2.6-5.93-6.57-5.54-11.71,3.5-46.42,24.34-81.86,66.68-102.67,13.24-6.51,27.91-10.19,42.03-14.84,3.84-1.26,6.26-3.12,7.94-6.85,3.38-7.49,7.27-14.76,10.44-21.09-5.43-8.43-10.37-16.26-15.54-23.93-.67-1-2.5-1.45-3.88-1.71-4.53-.85-9.44-.68-13.58-2.39-9.21-3.79-13.66-11.42-14.22-21.28-.18-3.18-.03-6.37-.03-9.58-11.9-5.19-16.4-14.41-16.07-26.89.49-19.01-.43-38.1.91-57.04,2.12-29.83,14.76-55.27,36.53-75.77C127.83,7.9,159.66-2.93,195.92.68c33.06,3.29,60.19,18.4,81.08,44.21,18.27,22.57,26.56,48.72,26.43,77.66-.07,14.9,0,29.8-.01,44.7-.01,16.76-9.79,26.6-26.45,26.63-3.85,0-7.7,0-12.16,0-2.27,21.55-9.91,40.72-25.25,56.38,4.37,8.77,8.56,17.36,12.99,25.82.61,1.17,2.37,1.98,3.77,2.46,11.44,3.91,22.98,7.51,34.36,11.56,33.47,11.91,55.39,35.59,68.5,68,5.02,12.42,7.35,25.47,8.09,38.85.28,5.14-.96,9.11-5.57,11.71H5.61ZM121.04,209.85c7.81,0,14.45-.09,21.09.05,2.17.05,3.18-.66,4.18-2.63,4.36-8.56,11.55-12.99,21.11-13.34,5.45-.2,10.91-.19,16.36,0,13.56.46,23.84,10.92,23.79,24.03-.05,13.08-10.43,23.42-24.02,23.79-5.05.14-10.11.09-15.17.02-10.07-.13-17.52-4.61-22.25-13.56-.46-.87-1.2-2.22-1.85-2.25-4.93-.19-9.86-.1-15.3-.1,5.09,8.48,11.02,15.05,18.37,20.29,35.52,25.31,85.55,8.7,98.29-37.99,3.62-13.24,4.81-27.19,6.6-40.88,1.36-10.38,1.91-20.86,2.83-31.4-1.16-.28-1.78-.46-2.41-.57-7.59-1.34-15.27-2.27-22.75-4.08-23.84-5.75-44.88-16.93-63.12-33.39-1.13-1.02-3.02-1.88-4.47-1.76-8.32.69-16.02,3.39-23.29,7.56-11.52,6.6-18.36,17.52-25.96,27.73-.68.91-.68,2.53-.58,3.79.81,11.01,1.37,22.05,2.66,33,1.62,13.82,3.86,27.58,5.87,41.69ZM169.25,392.56c-10.5-16.24-21.33-31.42-30.47-47.55-9.19-16.22-16.7-33.39-25.11-50.46-8.7,2.9-18.08,6.21-27.57,9.16-30.41,9.45-50.56,29.82-62.61,58.74-3.98,9.55-6.45,19.53-6.98,30.11h152.73ZM350.82,392.56c-.14-1.98-.2-3.57-.38-5.15-.17-1.45-.42-2.89-.71-4.33-6.86-33.67-24.34-59.65-55.94-74.41-12.2-5.7-25.49-9.07-38.29-13.47-.95-.33-1.95-.49-2.86-.72-.36.62-.62.94-.75,1.3-10.62,29.03-25.52,55.73-43.64,80.72-3.62,4.99-6.61,10.43-10.14,16.06h152.71ZM255.12,119.34c3.83-27.28-14.06-56.52-40.37-66.96-12.53-4.97-25.48-4.77-38.5-4.59-28.67.41-52.87,18.44-61.49,45.85-1.1,3.5-1.66,7.16-2.64,11.49,1.25-.7,1.51-.79,1.69-.96.47-.46.91-.97,1.37-1.45,13.41-14.19,29.94-21.61,49.35-22.94,4.16-.29,7.47.87,10.46,3.74,22.34,21.46,49.24,32.8,80.14,35.83ZM95.76,111.48c.13-1.74.19-3.06.33-4.38,3.77-34.55,21.68-58.33,54.22-70.77,15.06-5.76,30.88-5.24,46.52-4.16,34.19,2.36,62.8,26.22,71.62,59.3,1.73,6.48,2.46,13.22,3.66,19.91h14.75c-3.58-53.47-50.8-98.83-109.43-95.27-59.58,3.62-95.78,53.91-96.65,95.37h14.97ZM183.2,310.97c-.59.36-.99.49-1.24.76-8.6,9.06-17.13,18.19-25.83,27.16-1.89,1.95-.87,3.19.17,4.78,8.6,13.1,17.17,26.21,25.77,39.31.46.71,1.1,1.3,1.65,1.93,8.33-12.52,16.56-24.74,24.63-37.06,4.68-7.14,4.57-7.22-1.52-13.3-7.87-7.87-15.76-15.73-23.63-23.59ZM228.01,262.96c-11.61,12.29-22.78,24.11-33.68,35.64,9.11,9.12,17.91,17.94,27.49,27.54,5.61-13.61,11.17-27.04,16.64-40.51.28-.7-.08-1.82-.46-2.59-3.21-6.54-6.49-13.05-10-20.07ZM137.61,266.35c-2.72,5.42-5.56,10.82-8.11,16.36-.57,1.24-.58,3.13-.08,4.42,3.21,8.29,6.53,16.53,10.02,24.7,2.01,4.71,4.42,9.26,6.84,14.3,8.68-9.18,16.93-17.91,24.95-26.39-11.38-11.3-22.38-22.23-33.62-33.4ZM79.95,127.75c0,14.44-.12,28.61.08,42.77.05,3.61,2.36,6.52,6.05,6.92,4.51.49,9.11.12,13.61.12-1.33-16.74-2.65-33.21-3.97-49.81h-15.77ZM267.61,177.91c3.54,0,6.71.02,9.87,0,7.03-.06,9.93-2.93,9.96-9.95.04-10.35.01-20.7.01-31.05,0-3.01,0-6.01,0-9.11h-15.88c-1.32,16.67-2.62,33.15-3.96,50.11ZM175.77,225.81c2.39,0,4.79.08,7.18-.02,5.15-.21,8.7-3.57,8.63-8.05-.07-4.36-3.49-7.69-8.42-7.84-5.05-.16-10.11-.17-15.16.01-4.88.18-8.3,3.67-8.23,8.02.07,4.36,3.49,7.62,8.42,7.86,2.52.12,5.05.02,7.58.03ZM196.42,273.11h-27.33c4.2,4.21,9.02,9.04,14.02,14.05,4.12-4.35,8.45-8.93,13.3-14.05ZM96.42,194.01c-2.17,9.76.99,16.34,8.65,15.45-.93-5.15-1.85-10.27-2.79-15.46-2.19,0-4.03,0-5.87,0Z"/>
      <path class="cls-1" d="M327.75,363.36c-.17,3.93-1.69,6.54-5.04,7.85-3.53,1.39-6.64.56-8.88-2.39-1.92-2.52-3.1-5.63-5.14-8.02-4.47-5.22-9.24-10.19-13.97-15.19-2.23-2.35-4.16-5.12-2.65-8.13,1.18-2.35,3.51-4.69,5.89-5.66,1.75-.71,4.9.15,6.58,1.43,9.56,7.24,16.96,16.38,22.35,27.1.52,1.04.66,2.27.86,3.01Z"/>
      <path class="cls-1" d="M279.41,324.07c-.03,4.18-3.79,7.91-7.96,7.88-4.19-.03-7.9-3.79-7.88-7.96.03-4.18,3.79-7.9,7.96-7.88,4.18.03,7.9,3.79,7.88,7.96Z"/>
    </g>
  </g>
</svg>