<?xml version="1.0" encoding="UTF-8"?>
<svg id="Camada_2" data-name="Camada 2" xmlns="http://www.w3.org/2000/svg" viewBox="0 0 239.2 360.13">
  <defs>
    <style>
      .cls-1 {
        fill: #030349;
        stroke-width: 0px;
      }
    </style>
  </defs>
  <g id="Camada_1-2" data-name="Camada 1">
    <g>
      <path class="cls-1" d="M168.89,31.66c-3.12,3.3-5.5,5.81-7.99,8.44-22.49-17.93-46.53-22.12-71.6-7.48-26.28,15.34-31.84,40.41-28.92,69.85,7.11-4.77,13.99-9.04,20.38-13.94,1.35-1.03,1.53-4.48,1.2-6.65-1-6.61-2.52-13.15-3.98-20.43,3.91-.85,7.4-1.61,11.48-2.5,1.63,7.81,2.91,15.16,4.81,22.35.69,2.59,2.33,5.69,4.48,7.01,24.48,15.02,51.2,21.03,80.35,19.53.42-19.47,2.42-38.72-9.33-56.27,3.32-2.29,6.14-4.24,9.44-6.52,14.37,18.96,11.94,41.01,12.15,62.27,16.27,2.26,22.32,6.57,23.69,16.54,1.54,11.17-5.64,24.57-17.09,28.94-6.26,2.39-7.83,6.47-10.04,11.95-4.15,10.27-9.81,19.92-14.14,28.46,7.06,2.95,15.73,6.34,24.19,10.18,5.72,2.59,6.15,7.08,3.6,12.48-4.28,9.09-11.3,14.88-23.24,18.16,5.29,2.45,8.37,4.29,11.68,5.33,9.01,2.84,18.18,5.15,27.17,8.04,13.92,4.47,21.77,15.01,21.87,29.61.17,24.74-.04,49.49.11,74.24.04,6.43-2.7,8.89-9,8.89-73.7-.09-147.4-.1-221.1.01-6.86.01-9.16-2.93-9.11-9.54.2-24.24,0-48.49.11-72.74.07-15.81,7.88-26.27,23.19-30.91,13.56-4.11,27.17-8.09,40.89-11.62,5.68-1.46,8.74-3.63,7.71-10.06-.58-3.66-.65-7.59.04-11.2.77-3.97,2.68-7.72,4.45-12.56-13.06-9.8-22.74-24.42-27.06-42.68-.42-1.77-3.21-3.03-4.99-4.41-5.02-3.92-10.98-7.04-14.92-11.84-5.6-6.82-7.4-15.29-3.74-23.95,3.1-7.35,8.73-10.05,22.19-10.91,0-7.31-.03-14.72,0-22.13.07-17.45-.08-18.12-7.81-32.99-8.09-15.56-3.96-34.26,9.96-45.06,13.79-10.7,33.32-10.08,45.77,2.21,3.96,3.91,7.4,4.35,12.4,3.49,22.81-3.93,42.6,2.66,60.67,18.41ZM180.28,119.99c-6.54,0-11.01.11-15.48-.02-23.77-.7-46.3-6.43-66.96-18.26-5.99-3.43-10.24-3.88-15.73.49-6.98,5.57-17.58,8.8-21.15,15.84-3.74,7.36-1.23,18.05-1.05,27.27.62,30.29,23.53,55.17,53.66,58.5,28.68,3.17,56.88-15.81,63.44-44.4,2.85-12.4,2.23-25.61,3.26-39.42ZM12.05,347.44h93.68c-10.5-11.85-20.41-22.92-30.19-34.12-12.77-14.62-12.27-11.21-2.45-25.97.54-.81.85-1.76,1.47-3.08-4.99-2.54-9.84-4.94-14.64-7.46-7.1-3.73-7.76-6.53-2.87-12.67,4.61-5.79,9.38-11.45,15.57-18.98-18.08,5.29-34.11,9.55-49.81,14.78-7.18,2.39-10.69,8.78-10.72,16.48-.09,23.46-.03,46.92-.03,71.01ZM164.67,282.71c2.55,9.75,7.64,12.62,15.48,11.42,2.68-.41,5.47-.07,8.21-.06,23.29.03,20.74-2.44,20.94,21.54.05,6.06-2.64,8.6-8.6,8.5-9.71-.16-19.45.41-29.11-.26-4.05-.28-7.94-2.94-12.9-4.91-7.35,8.35-15.97,18.15-25.15,28.58h93.61c0-24.27.1-47.99-.06-71.71-.05-7.07-3.51-12.77-9.93-15.53-6.27-2.7-13.05-4.2-19.86-6.31,0,4.91-.19,8.87.04,12.8.4,6.74-2.69,8.73-9.23,9.57-8.02,1.04-15.78,4.18-23.44,6.36ZM143.29,216.58h-59.05v28.39c20.04-3.4,39.5-6.7,59.05-10.01v-18.37ZM104.89,328.38c.66-.18,1.32-.36,1.98-.55-5.91-23.72-11.81-47.45-17.68-71.01-11.96.72-13.15,1.45-19.08,11.56,5.07,2.6,10.14,5.15,15.17,7.78,4.7,2.46,5.63,5.95,2.68,10.44-2.82,4.29-5.61,8.6-8.52,13.07,8.71,9.83,17.08,19.28,25.45,28.72ZM55.15,52.49c7.53-14.61,18.58-25.66,33.17-33.24-10.96-9.6-24.55-9.31-33.7.25-8.98,9.39-8.92,23,.53,32.99ZM132.36,327.82l1.68.9c8.61-9.74,17.23-19.48,25.67-29.02q-11.4-18.98,3.3-28.72c-3.91-5-7.83-10.01-12.53-16.03-6.19,24.91-12.15,48.89-18.11,72.87ZM118.7,325.39c.65-.05,1.29-.1,1.94-.14,4.24-17.17,8.47-34.34,12.46-50.52h-27.1c4.19,16.71,8.44,33.69,12.69,50.66ZM189.82,212.66c-10.05-7.37-21.49-7.18-32.14.82-1.81,1.36-1.79,5.18-2.92,8.85,13.21-1.46,26.33,3.89,35.06-9.67ZM156.84,238.63c10.09,22.25,15.84,27.13,28.28,24.44-.4-12.97-6.9-18.72-28.28-24.44ZM104.13,253.83c5.28,8.92,12.72,12,20.88,9.23,7.41-2.52,11.27-7.72,10.42-14.52-10.22,1.73-20.42,3.45-31.3,5.29ZM47.55,142.04v-21.53c-4.87-.75-9.48-1.36-11.33,4.35-1.93,5.94,3.37,13.91,11.33,17.18ZM191.68,142.79c8.39-4.95,13.06-12.53,11.33-17.92-1.85-5.76-6.46-5.07-11.33-4.37v22.29ZM196.05,311.88c.64-.63,1.28-1.26,1.93-1.89-1.44-1.3-2.8-3.6-4.34-3.73-5.43-.46-10.95-.49-16.38.02-1.55.15-2.87,2.69-4.3,4.13.52.49,1.04.99,1.56,1.48h21.53Z"/>
      <path class="cls-1" d="M119.87,162.08c5.48,0,11.06-.64,16.39.27,2.65.45,6.57,3.49,6.91,5.79,1.54,10.54-1.24,19.96-10.77,26.05-8.32,5.31-16.98,5.35-25.36.11-9.59-6-12.52-15.34-11-25.92.34-2.37,4.11-5.59,6.7-6.01,5.58-.92,11.41-.28,17.13-.29ZM108.02,174.26c1.7,8.27,5.92,12.13,12.27,11.74,6.3-.38,9.97-4.44,10.45-11.74h-22.72Z"/>
      <path class="cls-1" d="M143.88,126.36h11.1v17.27h-11.1v-17.27Z"/>
      <path class="cls-1" d="M95.19,142.6c-1.42.15-2.61.36-3.79.39-2.21.06-4.42.02-7.14.02v-16.35h10.94v15.94Z"/>
    </g>
  </g>
</svg>